/* XPM */
static char * witch_w_4_xpm[] = {
"64 64 15 1",
" 	c #272D2B",
".	c #28332F",
"+	c #2F3A34",
"@	c #1B2423",
"#	c #3B324A",
"$	c #ECECE0",
"%	c #292333",
"&	c #A2A29A",
"*	c #9E907F",
"=	c #D47564",
"-	c #E6D1B8",
";	c #1F2423",
">	c #202A26",
",	c #151D1C",
"'	c #26302A",
" .++++++++++++ @+++++  +++++...@ .+++++        @.....  +++++...@",
" ++++   ......+@.  ..+ ......... ++++          @   ... .........",
" .....     .... ..   .   ....  . .....                   ....  .",
" .  ...   .....  ..  .  .....  . ......                 .....  .",
" ..   ....   ..  .   .  ...... . .......                ...... .",
" ...          .  .  ..  ........ .....                  ........",
" ....          @ .....   ....... +..           @         .......",
" +...          @+....+@    ...++ +..           @.    .@    ...++",
" ++++++       @@+++++@@@    ++@@ +###++       @@.....@@@    ++@@",
"        @@@@  @@  @@@@@@@@@@@@@@ ####   @@@@  @@  @@@@@@@@@@@@@@",
"      ...@@  ....++++..@@@@+++.@#####    @@  ....++++..@@@@+++.@",
"..   .... .   .........+@++  ..#####      .   .........+@++  ..@",
".. ...... ..  .........+ +  ...#####      ..  .........+ +  ... ",
"+......   .............+   ...#####       .............+   .... ",
" ++++++++ +++++.....+++    ..$####%...... +++++.....+++    .... ",
"           @@@            ..##$###%&       @@@            ..... ",
"+++@++++++++@  ......     .####$$$&%++++++++@             ..... ",
"...@       +@  ....###    ########%%%......+@               ... ",
"...        +@ .....################%%......+@                .. ",
"..           .......################%%# .##.           .@  .  . ",
".. @.        .....   %#####################.         ...@ ..  .@",
".  @@        .....    %%%%################..       ....+@.... .@",
"+++@@++++++  ++++++++++%%%&&&############++  ++++++++++@@ +++++@",
"  @@@@             @@@@@%&&&&&*****&%%##           @@@@@@    @@@",
" +++      +++.          @$$$$$=#-=#&%     +++.  +++   ..@@@ ....",
" .....      ...         $$$$$-=#-=#$..      ... +.   .....@.....",
" ..............         $$$$$------$........... .......... .....",
" ......... ...+         $$$$$-----$$...... ...+ .......... . ...",
"@.........  ..+@        $$$$##--%$$$......  ..+@.......... . ...",
"@..          .+@       $$$$#######$$         .+@......   .@   ..",
"@@+          ++@+++    $$$#########$         ++@+++      @@  +++",
"@@@@        @@@@@@     $$##########@        @@@@@@      @@@@   @",
" .++++++++++++ @+++++  $###########+++++++++++ @+++++  +++++...@",
" ++++       ..+@.  ..+ $###########++   ......+@     + .........",
" ..          .. ..   .$###########%        ....          ....  .",
" .        .....  ..  .$###########%       .....         .....  .",
" ..          ..  .   .$###########%          ..         ...... .",
" ....         .==.  ..###########%%%          .         ........",
" .........     @ ==...###$#######%%%           @         .......",
" ....          @+..===-#$########%%%           @+    +@    ...++",
" ++++++       @@+++++---=#######%%%%          @@+++++@@@    ++@@",
"        @@@@  @@  @@@@@$$#######%%%%    @@@@  @@  @@@@@@@@@@@@@@",
"      ...@@            $########%%%%  ...@@  ....++++..@@@@+++.@",
"..   ....              $#######%%%%% .... .   .........+@++  ..@",
".. ......              .#######%%%%%..... ..  .........+ +  ... ",
"+......                .#######%%%%%...   .............+   .... ",
" ++++++++ +++++     ... ######%%%%%++++++ +++++.....+++    .... ",
"           @@@           #####%%%%%        @@@            ..... ",
"+++@++++++++@            #####%%%% @++++++++@  ......     ..... ",
"...@.......+@             ####%%%  @.......+@  .......      ... ",
"...  ......+@             $$;>>&&    ......+@ ........       .. ",
"..      ....           .@;##;;>%%;      .... .......   .@  .  . ",
".. @.    ...         ...,;##;;>%%;;@.    ... .....   ...@ ..  .@",
".  @@    ...       ....+,>>>>;>,;;;@@    ... ..... ....+@.... .@",
"+++@@++++++  ++++++++++@@;''''',>>.@@++++++  ++++++++++@@ +++++@",
"  @@@@             @@@@@@    @@@  @@@@             @@@@@@    @@@",
" +++      +++.  ...     @@@ ....                +++   ..@@@     ",
" .....      ... .         @.....                +.   .....@     ",
" ..............            .....                ..........      ",
" ......... ...+            . ...              + ..........      ",
"@.........  ..+@           . ...@             +@..........      ",
"@..          .+@          @   ..@             +@......   .@     ",
"@@+          ++@         @@  +++@@+          ++@+++      @@  +++",
"@@@@        @@@@@@      @@@@   @@@@@        @@@@@@      @@@@   @"};
