/* XPM */
static char * witch_r_6_xpm[] = {
"64 64 16 1",
" 	c #272D2B",
".	c #28332F",
"+	c #2F3A34",
"@	c #1B2423",
"#	c #3B324A",
"$	c #292333",
"%	c #D47564",
"&	c #925145",
"*	c #9E907F",
"=	c #759167",
"-	c #E6D1B8",
";	c #AAD395",
">	c #1F2423",
",	c #202A26",
"'	c #151D1C",
")	c #26302A",
" .++++++++++++ @+++++  +++++...@ .+++++        @.....  +++++...@",
" ++++   ......+@.  ..+ ......... ++++          @   ... .........",
" .....     .... ..   .   ....  . .....                   ....  .",
" .  ...   .....  ..  .  .....  . ......                 .....  .",
" ..   ....   ..  .   .  ...... . .......                ...... .",
" ...          .  .  ..  ........ .....                  ........",
" ....          @ .....   ....... +..           @         .......",
" +...          @+....+@    ...++ +..           @.    .@    ...++",
" ++++++       @@+++++@@@#   ++@@ ++++++       @@.....@@@    ++@@",
"        @@@@  @@  @@@@@###@@@@@@        @@@@  @@  @@@@@@@@@@@@@@",
"      ...@@  ....++++..###@+++.@         @@  ....++++..@@@@+++.@",
"..   .... .   .........####  ..@          .   .........+@++  ..@",
".. ...... ..  .........+### ...           ..  .........+ +  ... ",
"+......   .............+####... .         .............+   .... ",
" ++++++++ +++++.....+++  $###..  ........ +++++.....+++    .... ",
"           @@@           $####.            @@@            ..... ",
"+++@++++++++@  ......     $#### +++@++++++++@             ..... ",
"...@       +@  .......    $####%...####....+@               ... ",
"...        +@ ........    $$#%%########....+@                .. ",
"..           .......    @$&&&#########  ....           .@  .  . ",
".. @.        .....      @$$$#########$   ...         ...@ ..  .@",
".  @@        .....   ###$$$#########$    ...       ....+@.... .@",
"+++@@++++++  ++++++++##############&@++++++  ++++++++++@@ +++++@",
"  @@@@             @@@###########*&%@@             @@@@@@    @@@",
" +++      +++.          $$####=$*=#%      +++.  +++   ..@@@ ....",
" .....      ...           &&&&=#-;#%..      ... +.   .....@.....",
" ..............           %%%------%........... .......... .....",
" ......... ...+            %%-----&....... ...+ .......... . ...",
"@.........  ..+@           .%&--&&........  ..+@.......... . ...",
"@..          .+@          @######..          .+@......   .@   ..",
"@@+          ++@+++      @########+          ++@+++      @@  +++",
"@@@@        @@@@@@      @##########@        @@@@@@      @@@@   @",
" .++++++++++++ @+++++   -##########+++++++++++ @+++++  +++++...@",
" ++++       ..+@.  ..+  -##########++   ......+@     + .........",
" ..          .. ..   .  --# #######        ....          ....  .",
" .        .....  ..  .  --  #######       .....         .....  .",
" ..          ..  .   .  --  ---####          ..         ...... .",
" ....         .  .  ..  --  ------*           .         ........",
" .........     @ .....  ---###----*            @         .......",
" ....          @+....+@  -#####%&$$$           @+    +@    ...++",
" ++++++       @@+++++@@@ #######$$$$          @@+++++@@@    ++@@",
"        @@@@  @@  @@@@@@@#######$$$$    @@@@  @@  @@@@@@@@@@@@@@",
"      ...@@            @@######$$$$$  ...@@  ....++++..@@@@+++.@",
"..   ....              .@######$$$$$ .... .   .........+@++  ..@",
".. ......              . ######$$$$$..... ..  .........+ +  ... ",
"+......                .  #####$$$$$...   .............+   .... ",
" ++++++++ +++++     ...   ##### $$$$+++++ +++++.....+++    .... ",
"           @@@            ####. $$$$       @@@            ..... ",
"+++@++++++++@             ###.. $$$@++++++++@  ......     ..... ",
"...@.......+@             ###.. $$$@.......+@  .......      ... ",
"...  ......+@             -- .. **   ......+@ ........       .. ",
"..      ....           .@>##>>,>$$>     .... .......   .@  .  . ",
".. @.    ...         ...'>##>>,'$$>'.    ... .....   ...@ ..  .@",
".  @@    ...       ....+',,,,>,'>>>'@    ... ..... ....+@.... .@",
"+++@@++++++  ++++++++++@@>)))))',,,@@++++++  ++++++++++@@ +++++@",
"  @@@@             @@@@@@    @@@  @@@@             @@@@@@    @@@",
" +++      +++.  ...     @@@ ....                +++   ..@@@     ",
" .....      ... .         @.....                +.   .....@     ",
" ..............            .....                ..........      ",
" ......... ...+            . ...              + ..........      ",
"@.........  ..+@           . ...@             +@..........      ",
"@..          .+@          @   ..@             +@......   .@     ",
"@@+          ++@         @@  +++@@+          ++@+++      @@  +++",
"@@@@        @@@@@@      @@@@   @@@@@        @@@@@@      @@@@   @"};
