/* XPM */
static char * cat_exit_7_xpm[] = {
"64 64 11 1",
" 	c #272D2B",
".	c #28332F",
"+	c #2F3A34",
"@	c #1B2423",
"#	c #3B324A",
"$	c #377172",
"%	c #4FA4A5",
"&	c #292333",
"*	c #1F2423",
"=	c #202A26",
"-	c #26302A",
" .++++++++++++ @+++++  +++++...@ .+++++        @.....  +++++...@",
" ++++   ......+@.  ..+ ......... ++++          @   ... .........",
" .....     .... ..   .   ....  . .....                   ....  .",
" .  ...   .....  ..  .  .....  . ......                 .....  .",
" ..   ....   ..  .   .  ...... . .......                ...... .",
" ...          .  .  ..  ........ .....                  ........",
" ....          @ .....   ....... +..           @         .......",
" +...          @+....+@    ...++ +..           @.    .@    ...++",
" ++++++       @@+++++@@@    ++@@ ++++++       @@.....@@@    ++@@",
"        @@@@  @@  @@@@@@@@@@@@@@        @@@@  @@  @@@@@@@@@@@@@@",
"      ...@@  ....++++..@@@@+++.@         @@  ....++++..@@@@+++.@",
"..   .... .   .........+@++  ..@          .   .........+@++  ..@",
".. ...... ..  .........+ +  ...           ..  .........+ +  ... ",
"+......   .............+   .... .         .............+   .... ",
" ++++++++ +++++.....+++    ....  ........ +++++.....+++    .... ",
"           @@@            .....            @@@            ..... ",
"+++@++++++++@  ......     ....##+++@++++++++@             ..... ",
"...@       +@  .......      ..####.@.......+@               ... ",
"...        +@ ........       .####.  ......+@                .. ",
"..           .......    @  .  .####     ....           .@  .  . ",
".. @.        .....      @ ..  .####@.    ...         ...@ ..  .@",
".  @@        .....     +@.... .####@@    ...       ....+@.... .@",
"+++@@++++++  ++++++++++@@ +++++#####@++++++  ++++++++++@@ +++++@",
"  @@@@             @@@@@@    @######@@             @@@@@@    @@@",
" +++      +++.          @@@ .$######%&&&##+++.  +++   ..@@@ ....",
" .....      ...           @&&&$$$%%%&&&&##  ... +.   .....@.....",
" ..............         #&&&&&&&&&&&&&###...... .......... .....",
" ......... ...+         ##&&&&&&&&&&####.. ...+ .......... . ...",
"@.........  ..+@         #############....  ..+@.......... . ...",
"@..          .+@          ##########         .+@......   .@   ..",
"@@+          ++@+++      @@  +++@@+          ++@+++      @@  +++",
"@@@@        @@@@@@      @@@@   @@@@@        @@@@@@      @@@@   @",
" .++++++++++++ @+++++          @ .++++++++++++ @+++++  +++++...@",
" ++++       ..+@.  ..+           ++++   ......+@     + .........",
" ..          .. ..   .                     ....          ....  .",
" .        .....  ..  .     ####&&&        .....         .....  .",
" ..          ..  .   .   ######&&&&&         ..         ...... .",
" ....         .  .  ..  #######&&&&&&         .         ........",
" .........     @ .....  ########&&&&&          @         .......",
" ....          @+....+@ ########&&&&&          @+    +@    ...++",
" ++++++       @@+++++@@#########&&&&&&        @@+++++@@@    ++@@",
"        @@@@  @@  @@@@##########&&&&&&& @@@@  @@  @@@@@@@@@@@@@@",
"      ...@@           #########&&&&&&&&&.@@  ....++++..@@@@+++.@",
"..   ....            ##########&&&&&&&&&. .   .........+@++  ..@",
".. ......           *##########&&&&&&&&&= ..  .........+ +  ... ",
"+......             **#######==*-&&&&&&** .............+   .... ",
" ++++++++ +++++     ===****====**-------- +++++.....+++    .... ",
"           @@@        ****=====********    @@@            ..... ",
"+++@++++++++@             .....    @++++++++@  ......     ..... ",
"...@.......+@               ...    @.......+@  .......      ... ",
"...  ......+@                ..      ......+@ ........       .. ",
"..      ....           .@  .  .         .... .......   .@  .  . ",
".. @.    ...         ...@ ..  .@   @.    ... .....   ...@ ..  .@",
".  @@    ...       ....+@.... .@   @@    ... ..... ....+@.... .@",
"+++@@++++++  ++++++++++@@ +++++@...@@++++++  ++++++++++@@ +++++@",
"  @@@@             @@@@@@    @@@  @@@@             @@@@@@    @@@",
" +++      +++.  ...     @@@ ....                +++   ..@@@     ",
" .....      ... .         @.....                +.   .....@     ",
" ..............            .....                ..........      ",
" ......... ...+            . ...              + ..........      ",
"@.........  ..+@           . ...@             +@..........      ",
"@..          .+@          @   ..@             +@......   .@     ",
"@@+          ++@         @@  +++@@+          ++@+++      @@  +++",
"@@@@        @@@@@@      @@@@   @@@@@        @@@@@@      @@@@   @"};
