/* XPM */
static char * exit_win_2_xpm[] = {
"64 64 13 1",
" 	c #272D2B",
".	c #28332F",
"+	c #2F3A34",
"@	c #1B2423",
"#	c #3B324A",
"$	c #377172",
"%	c #292333",
"&	c #4FA4A5",
"*	c #ECECE0",
"=	c #E6D1B8",
"-	c #1F2423",
";	c #202A26",
">	c #26302A",
" .++++++++++++ @+++++  +++++...@ .+++++        @.....  +++++...@",
" ++++   ......+@.  ..+ ......... ++++          @   ... .........",
" .....     .... ..   .   ....  . .....                   ....  .",
" .  ...   .....  ..  .  .....  . ......                 .....  .",
" ..   ....   ..  .   .  ...... . .......                ...... .",
" ...          .  .  ..  ........ .....                  ........",
" ....          @ .....   ....... +..           @         .......",
" +...          @+....+@    ...++ +..           @.    .@    ...++",
" ++++++       @@+++++@@@    ++@@ ++++++       @@.....@@@    ++@@",
"        @@@@  @@  @@@@@@@@@@@@@@        @@@@  @@  @@@@@@@@@@@@@@",
"      ...@@  ....++++..@@@@+++.@         @@  ....++++..@@@@+++.@",
"..   .... .   .........+@++  #.@          .   .........+@++  ..@",
".. ...... ..  .........+ +  .##           ..  .........+ +  ... ",
"+......   .............+   ..## .         .............+   .... ",
" ++++++++ +++++.....+++    ..### ........ +++++.....+++    .... ",
"           @@@            ...####          @@@            ..... ",
"+++@++++++++@  ......     ...####++@++++++++@             ..... ",
"...@       +@  .......      #####..@.......+@               ... ",
"...        +@ ........      ######.  ......+@                .. ",
"..           .......    @  $######$%%%  ....           .@  .  . ",
".. @.        .....      @%%%$$###&%%%%%% ...         ...@ ..  .@",
".  @@        .....     %%%%%%%&&&%%%%%###...       ....+@.... .@",
"+++@@++++++  +++++++++%%%%%%%%%%%%#######++  ++++++++++@@ +++++@",
"  @@@@             @@##%%%%#############           @@@@@@    @@@",
" +++      +++.        ################    +++.  +++   ..@@@ ....",
" .....      ...        ##########$$$$.      ... +.   .....@.....",
" ..............           $$$$$$$$$&&.......... .......... .....",
" ......... ...+           &&&&*#=*#&&..... ...+ .......... . ...",
"@.........  ..+@          &&&&*#=*#&&.....  ..+@.......... . ...",
"@..          .+@          @&&&=====&         .+@......   .@   ..",
"@@+          ++@+++      @@#####%%%%         ++@+++      @@  +++",
"@@@@        @@@@@@      @@######%%%%        @@@@@@      @@@@   @",
" .++++++++++++ @+++++     ######%%%%%+++++++++ @+++++  +++++...@",
" ++++       ..+@.  ..+   #######%%%%%   ......+@     + .........",
" ..          .. ..   .  #########%%%%%     ....          ....  .",
" .        .....  ..  .  #########%%%%%    .....         .....  .",
" ..          ..  .   .  #########%%%%%       ..         ...... .",
" ....         .  .  ..  #########%%%%%        .         ........",
" .........     @ .....  #########%%%%%         @         .......",
" ....          @+....+@ #########%%%%%         @+    +@    ...++",
" ++++++       @@+++++@@@########%%%%%%        @@+++++@@@    ++@@",
"        @@@@  @@  @@@@@@########%%%%%%  @@@@  @@  @@@@@@@@@@@@@@",
"      ...@@            @@#######%%%%%%...@@  ....++++..@@@@+++.@",
"..   ....              .@+#####%%%%%%.... .   .........+@++  ..@",
".. ......              . + -##;-;%%;..... ..  .........+ +  ... ",
"+......                .  -;##;->%%;;..   .............+   .... ",
" ++++++++ +++++     ...   -;;;;-->>>>++++ +++++.....+++    .... ",
"           @@@            .;;;;-----       @@@            ..... ",
"+++@++++++++@             .....    @++++++++@  ......     ..... ",
"...@.......+@               ...    @.......+@  .......      ... ",
"...  ......+@                ..      ......+@ ........       .. ",
"..      ....           .@  .  .         .... .......   .@  .  . ",
".. @.    ...         ...@ ..  .@   @.    ... .....   ...@ ..  .@",
".  @@    ...       ....+@.... .@   @@    ... ..... ....+@.... .@",
"+++@@++++++  ++++++++++@@ +++++@...@@++++++  ++++++++++@@ +++++@",
"  @@@@             @@@@@@    @@@  @@@@             @@@@@@    @@@",
" +++      +++.  ...     @@@ ....                +++   ..@@@     ",
" .....      ... .         @.....                +.   .....@     ",
" ..............            .....                ..........      ",
" ......... ...+            . ...              + ..........      ",
"@.........  ..+@           . ...@             +@..........      ",
"@..          .+@          @   ..@             +@......   .@     ",
"@@+          ++@         @@  +++@@+          ++@+++      @@  +++",
"@@@@        @@@@@@      @@@@   @@@@@        @@@@@@      @@@@   @"};
