/* XPM */
static char * wall_11011x0x_xpm[] = {
"64 64 13 1",
" 	c #070707",
".	c #2A221F",
"+	c #555145",
"@	c #37342B",
"#	c #2D2C27",
"$	c #1F1714",
"%	c #1A1512",
"&	c #140E0E",
"*	c #0A0908",
"=	c #080808",
"-	c #0A0A09",
";	c #090808",
">	c #29211E",
"                                                          .+@##$",
"                                                          .+@@@@",
"                                                          .+@@@@",
"                                                          .+++++",
"                                                          $#....",
"                                                          $#....",
"                                                          $#....",
"                                                          $$$$$$",
"                                                          %%%%%%",
"                                                          &&&&&&",
"                                                          ...$$&",
"                                                          $$$$$$",
"                                                          $$$$$.",
"                                                          $$$$$.",
"                                                          $$$$$.",
"                                                          $$$$$.",
"                                                          $$$...",
"                                                          &&&&&&",
"                                                          &&&$$$",
"                                                          .&$$$$",
"                                                          .&$$$$",
"                                                          . $&&$",
"                                                          & $&&$",
"                                                          & &&&&",
"                                                                ",
"                                                          $$$&& ",
"                                                          &&&&&&",
"                                                          &&&&&&",
"                                                          &&&&&&",
"                                                          &&&&&&",
"                                                          &&&&&&",
"                                                          &&&&&&",
"                                                                ",
"                                                            &&&&",
"                                                            &&&&",
"                                                            &&  ",
"                                                            &&  ",
"                                                          & &   ",
"                                                          &     ",
"                                                                ",
"                                                                ",
"                                                                ",
"                                                                ",
"                                                                ",
"                                                                ",
"                                                                ",
"                                                                ",
"                                                                ",
"                                                                ",
"                                                                ",
"                                                                ",
"                                                                ",
"                                                                ",
"                                                                ",
"                                                                ",
"*                                                               ",
" =- =;                                                          ",
"$$$$$$$$$$$$$$$$$$$$$$$$$$$$$$$$$$$$$$$$$$$$$$$$$$$$$$$$$$$$$$$$",
"##@@@@@@@#######@@@@@@@@@##########@@@@@@#######@@@@@@@@@#######",
"@@@@@@@#######@@@@@@@@@@@@#####@@@@@@@@#######@@@@@@@@@@@@#####@",
"++++++++++++++++++++++++++++++++++++++++++++++++++++++++++++++++",
"................................................................",
">...............................$$..............................",
"$.........$$$$..............$$$$$$$.......$$$$..............$$$$"};
