/* XPM */
static char * wall_11x1001x_xpm[] = {
"64 64 13 1",
" 	c #070707",
".	c #080808",
"+	c #1F1714",
"@	c #2D2C27",
"#	c #312F2A",
"$	c #37342B",
"%	c #545044",
"&	c #2A221F",
"*	c #2E2D28",
"=	c #35322B",
"-	c #555145",
";	c #1F1814",
">	c #090909",
"                                                         .+@#$%&",
"                                                         .+*=$-&",
"                                                         .+*=$-&",
"                                                         .;$$$-&",
"                                                         >+$$$-&",
"                                                          +@$$-&",
"                                                          +@$$-&",
"                                                          +@$$-&",
"                                                          +@@$-&",
"                                                          +@@$-&",
"                                                          +@@$-&",
"                                                          +@@$-&",
"                                                          +@@$-&",
"                                                          +@$$-&",
"                                                          +@$$-&",
"                                                          +@$$-&",
"                                                          +@$$-&",
"                                                          +@$$-&",
"                                                          +@$$-&",
"                                                          +$@$-&",
"                                                          +$$$-&",
"                                                          +@$$-&",
"                                                          +@$$-&",
"                                                          +@$$-&",
"                                                          +@@$-&",
"                                                          +@@$-&",
"                                                          +@@$-&",
"                                                          +@@$-&",
"                                                          +@@$-&",
"                                                          +@$$-&",
"                                                          +@$$-&",
"                                                          +@$$-&",
"                                                          +@$$-&",
"                                                          +$$$-&",
"                                                          +$$$-&",
"                                                          +$$$-&",
"                                                          +$@$-&",
"                                                          +$@$-&",
"                                                          +@@$-&",
"                                                          +@$$-&",
"                                                          +@@$-&",
"                                                          +@@$-&",
"                                                          +@@$-&",
"                                                          +@@$-&",
"                                                          +@@$-&",
"                                                          +@$$-&",
"                                                          +@$$-&",
"                                                          +@$$-&",
"                                                          +@$$-&",
"                                                          +$$$-&",
"                                                          +$$$-&",
"                                                          +$$$-&",
"                                                          +$@$-&",
"                                                          +$@$-&",
"                                                          +@@$-&",
"                                                          +@$$-&",
"                                                          +@$$-&",
"&&&&&&                                                    +@$$-&",
"$$$--&                                                    +@$$-&",
"$$$$-&                                                    +@@$-&",
"-$$$-&                                                    +@@$-&",
"+$$$-&                                                    +@@$-&",
"+@$$-&                                                    +$@$-&",
"+@$$-&                                                    +$@$-&"};
