/* XPM */
static char * wall_x0x11x0x_xpm[] = {
"64 64 21 1",
" 	c #2A221F",
".	c #2D2C27",
"+	c #2E2D28",
"@	c #37342B",
"#	c #555145",
"$	c #545044",
"%	c #1F1714",
"&	c #201815",
"*	c #1A1512",
"=	c #140E0E",
"-	c #070707",
";	c #100D0C",
">	c #080707",
",	c #0F0C0B",
"'	c #080808",
")	c #0A0908",
"!	c #080807",
"~	c #090909",
"{	c #090808",
"]	c #0A0A09",
"^	c #29211E",
"                                                                ",
".+@@@@@@@.......@@@@@@@@@..........@@@@@@.......@@@@@@@@@.......",
"@@@@@@@.......@@@@@@@@@@@@.....@@@@@@@@.......@@@@@@@@@@@@.....@",
"##$$############################################################",
"                                                                ",
"%&%                             %%                              ",
"%%%%%     %%%%              %%%%%%%       %%%%              %%%%",
"%%%%%%%%%%%%%%%%%%%%%%%%%%%%%%%%%%%%%%%%%%%%%%%%%%%%%%%%%%%%%%%%",
"****************************************************************",
"================================================================",
"==    ==     %%==    %%%    =       %=%%            %===     %%=",
"= %%%%= %%%%%%%%= %%%%%%%%%%=%%%%%%%%=%%%%%%%%%%%%%%%== %%%%%%%%",
"=%%%%%=%%%%%%%% =%%%%%%%%%%%= %%%%%%%=%%%%%%%%%%%%%%%==%%%%%%%% ",
"=%%%%%=%%%%%%%% =%%%%%%%%%%%=   %%%%%=%%%%%%%%%%%%%%%==%%%%%%%% ",
"=%%%%%=%%%%%%%% =  %%%%% %%%=    %%%%=%%%%%%%%%%%%%%%==%%%%%%%% ",
"=%%%%%=%%%%%%%% =   %%%     ====  %%==%%%         %%===%%%%%%%% ",
"=  %%%=  %%%%   ==   %     ============    ============  %%%%   ",
"================================================================",
"%%  ==%%  ===%%%%    ==%%%%   ===   %%%%%     ===   %%%%  ===%%%",
"%%%% =%%%% =%%%%%%%%%=%%%%%%%% =%%%%%%%%%%%%%% =%%%%%%%%%% =%%%%",
"%%%  =%%%  =%%%%%%%%%-%%%%%%%%%=%%%%%%%%%%%%%%%==%%%%%%%%  =%%%%",
"%%%% -%%%% -%==%%%%%%-%%%%%%%%%-%%%%%%==%%%%%%%-==%%%%%%%% -%==%",
"%%%%=-%%%%=-%==%%%%%%-%=%===%%%-=%%%=====%%%%%=-======%%%%=-%==%",
"=====-=====-=========-==%======--==============--==========-====",
"----------------------------------------------------------------",
"--%%%%--%%%%%==--%%%%===%%%%-%%%%%%%=-==%%%%-%%%%%%%=---%%%%%==-",
"-%====-%========-%==========-========-======-========--%========",
"-=====-=========-===========-========-======-========--=========",
"-=====-=========-===========-========-======-========--=========",
"-=====-=========-===========-========-======-========--=========",
"-=====-=========-===========----====--======----====---=========",
"-=====-=========--=========-------------===------------=========",
"----------------------------------------------------------------",
"====--====--==========-=========--====-==========-========--====",
"---=-----=--======---=-===-----=--===--===----===-===----=--====",
"---=-----=--==-------=-===-----=--=----===-----==-=------=--==--",
"---=-----=--==-------=-==---------=----==------==-=------=--==--",
"----=-----=-=----------==---------=----==------=--=-------=-=---",
"----=-----=-----------------------=-----=------=--=-------=-----",
"----------------------------------------------------------------",
";--->,----------------------------------------------------------",
"----------------------------------------------------------------",
"----')----------------------------------------------------------",
"----------------------------------------------------------------",
"----------------------------------------------------------------",
"----------------------------------------------------------------",
"-!''~{----------------------------------------------------------",
"----------------------------------------------------------------",
"----------------------------------------------------------------",
"----------------------------------------------------------------",
"----------------------------------------------------------------",
"----------------------------------------------------------------",
"----------------------------------------------------------------",
"----------------------------------------------------------------",
"----------------------------------------------------------------",
")---------------------------------------------------------------",
"-']-'{----------------------------------------------------------",
"%%%%%%%%%%%%%%%%%%%%%%%%%%%%%%%%%%%%%%%%%%%%%%%%%%%%%%%%%%%%%%%%",
"..@@@@@@@.......@@@@@@@@@..........@@@@@@.......@@@@@@@@@.......",
"@@@@@@@.......@@@@@@@@@@@@.....@@@@@@@@.......@@@@@@@@@@@@.....@",
"################################################################",
"                                                                ",
"^                               %%                              ",
"%         %%%%              %%%%%%%       %%%%              %%%%"};
