/* XPM */
static char * wall_x0x10x0x_xpm[] = {
"64 64 8 1",
" 	c #2A221F",
".	c #2D2C27",
"+	c #37342B",
"@	c #555145",
"#	c #1F1714",
"$	c #1A1512",
"%	c #140E0E",
"&	c #070707",
"                                                                ",
".......++++.........+++++++++.......+++++++++..........++++++@@ ",
"...+++++++.....++++++++++++.......++++++++++++.....+++++++++++@ ",
"@@@@@@@@@@@@@@@@@@@@@@@@@@@@@@@@@@@@@@@@@@@@@@@@@@@@@@@@@@@+++@ ",
"                                                          #+++@ ",
"    ##                                              ##    #.++@ ",
"#######  ####                 ####              #######   #.++@ ",
"###########################################################.++@ ",
"$$$$$$$$$$$$$$$$$$$$$$$$$$$$$$$$$$$$$$$$$$$$$$$$$$$$$$$$$$#..+@ ",
"%%%%%%%%%%%%%%%%%%%%%%%%%%%%%%########%%%%%%%%%%%%%%%%%%%%#..+@ ",
" ##%%    ###    %       #%%%      ###   %%##    %       #%#..+@ ",
"####% ##########%########%%% #####    # %%######%########%#..+@ ",
"### %###########% #######%%% ########## %%######% #######%#..+@ ",
"### %###########%   #####%%% ########## %%######%   #####%#.++@ ",
"### %  ##### ###%    ####%%% ###########%%## ###%    ####%#.++@ ",
"### %   ###     %%%%  ##%%%%############%%#     %%%%  ##%%#.++@ ",
"#   %%   #     %%%%%%%%%%%%%############%%     %%%%%%%%%%%#.++@ ",
"%%%%%%%%%%%%%%%%%%%%%%%%%%%%############%%%%%%%%%%%%%%%%%%#.++@ ",
"%####    %%####   %%%   ##%%######%%####%%%####   %%%   ###.++@ ",
"#########%######## %######%%#######%####%%######## %#######+.+@ ",
"#########&#########%######%%%######%%###%%#########%#######+++@ ",
"#%%######&#########&######%&%######%%%%#%%#########&#######.++@ ",
"#%%######&#%#%%%###&%###%%%&%##%####%%%#&%#%#%%%###&%###%%#.++@ ",
"%%%%%%%%%&%%#%%%%%%&&%%%%%%&%%#%%%%%%%%#&&%%#%%%%%%&&%%%%%#.++@ ",
"&&&&&&&&&&&&&&&&&&&&&&&&&&&&&%%%%%%%%##&&&&&&&&&&&&&&&&&&&#..+@ ",
"#%%&&####%%%####&#######%&&&&&%%%%%###&&&&%%####&#######%&#..+@ ",
"%%%%&#%%%%%%%%%%&%%%%%%%%&&&&##########&&&%%%%%%&%%%%%%%%&#..+@ ",
"%%%%&%%%%%%%%%%%&%%%%%%%%&&&#%%%%%%%%%%#&&%%%%%%&%%%%%%%%&#..+@ ",
"%%%%&%%%%%%%%%%%&%%%%%%%%&&&#%%%%%%%%%%#&&%%%%%%&%%%%%%%%&#..+@ ",
"%%%%&%%%%%%%%%%%&%%%%%%%%&&&#%%%%%%%%%%#&&%%%%%%&%%%%%%%%&#.++@ ",
"%%%%&%%%%%%%%%%%&&&&%%%%&&&&#%%%%%%%%%%%&&%%%%%%&&&&%%%%&&#.++@ ",
"%%%%&&%%%%%%%%%&&&&&&&&&&&&&%%%%%%%%%%%%&&%%%%%&&&&&&&&&&&#.++@ ",
"&&&&&&&&&&&&&&&&&&&&&&&&&&&&%%%%%%%%%%%%&&&&&&&&&&&&&&&&&&#.++@ ",
"%%%%%%%%%%&%%%%%%%%%&&%%%%&&%%%%%%%%%&%%&&&%%%%%%%%%&&%%%%#+++@ ",
"%%%%%%&&&%&%%%&&&&&%&&%%%&&&%%%%%%%%&&%%&&&%%%&&&&&%&&%%%&#+++@ ",
"%%&&&&&&&%&%%%&&&&&%&&%&&&&&%%%%%%%%&&%%&&&%%%&&&&&%&&%&&&#+++@ ",
"%%&&&&&&&%&%%&&&&&&&&&%&&&&&%%%%%%%%&&%%&&&%%&&&&&&&&&%&&&#+.+@ ",
"%&&&&&&&&&&%%&&&&&&&&&%&&&&&%%%%%%&&&&%%&&&%%&&&&&&&&&%&&&#+.+@ ",
"&&&&&&&&&&&&&&&&&&&&&&%&&&&&%%%%%%&&&&%&&&&&&&&&&&&&&&%&&&#..+@ ",
"&&&&&&&&&&&&&&&&&&&&&&&&&&&&&&&&&&&&&&%&&&&&&&&&&&&&&&&&&&#.++@ ",
"&&&&&&&&&&&&&&&&&&&&&&&&&&&&&&&&&&&&&&&&&&&&&&&&&&&&&&&&&&#..+@ ",
"&&&&&&&&&&&&&&&&&&&&&&&&&&&&&&&&&&&&&&&&&&&&&&&&&&&&&&&&&&#..+@ ",
"&&&&&&&&&&&&&&&&&&&&&&&&&&&&&&&&&&&&&&&&&&&&&&&&&&&&&&&&&&#..+@ ",
"&&&&&&&&&&&&&&&&&&&&&&&&&&&&&&&&&&&&&&&&&&&&&&&&&&&&&&&&&&#..+@ ",
"&&&&&&&&&&&&&&&&&&&&&&&&&&&&&&&&&&&&&&&&&&&&&&&&&&&&&&&&&&#..+@ ",
"&&&&&&&&&&&&&&&&&&&&&&&&&&&&&&&&&&&&&&&&&&&&&&&&&&&&&&&&&&#.++@ ",
"&&&&&&&&&&&&&&&&&&&&&&&&&&&&&&&&&&&&&&&&&&&&&&&&&&&&&&&&&&#.++@ ",
"&&&&&&&&&&&&&&&&&&&&&&&&&&&&&&&&&&&&&&&&&&&&&&&&&&&&&&&&&&#.++@ ",
"&&&&&&&&&&&&&&&&&&&&&&&&&&&&&&&&&&&&&&&&&&&&&&&&&&&&&&&&&&#.++@ ",
"&&&&&&&&&&&&&&&&&&&&&&&&&&&&&&&&&&&&&&&&&&&&&&&&&&&&&&&&&&#+++@ ",
"&&&&&&&&&&&&&&&&&&&&&&&&&&&&&&&&&&&&&&&&&&&&&&&&&&&&&&&&&&#+++@ ",
"&&&&&&&&&&&&&&&&&&&&&&&&&&&&&&&&&&&&&&&&&&&&&&&&&&&&&&&&&&#+++@ ",
"&&&&&&&&&&&&&&&&&&&&&&&&&&&&&&&&&&&&&&&&&&&&&&&&&&&&&&&&&&#+.+@ ",
"&&&&&&&&&&&&&&&&&&&&&&&&&&&&&&&&&&&&&&&&&&&&&&&&&&&&&&&&&&#+.+@ ",
"&&&&&&&&&&&&&&&&&&&&&&&&&&&&&&&&&&&&&&&&&&&&&&&&&&&&&&&&&&#..+@ ",
"&&&&&&&&&&&&&&&&&&&&&&&&&&&&&&&&&&&&&&&&&&&&&&&&&&&&&&&&&&#.++@ ",
"&&&&&&&&&&&&&&&&&&&&&&&&&&&&&&&&&&&&&&&&&&&&&&&&&&&&&&&&&&#..+@ ",
"###########################################################..+@ ",
".......++++.........+++++++++.......+++++++++..........+++++++@ ",
"...+++++++.....++++++++++++.......++++++++++++.....+++++++++++@ ",
"@@@@@@@@@@@@@@@@@@@@@@@@@@@@@@@@@@@@@@@@@@@@@@@@@@@@@@@@@@@@@@@ ",
"                                                              .#",
"    ##                                              ##        .#",
"#######  ####                 ####              #######       .#"};
