/* XPM */
static char *result[] = {
/* columns rows colors chars-per-pixel */
"64 64 8 1 ",
"  c #070707",
". c #140E0E",
"X c #1A1512",
"o c #1F1714",
"O c #2A221F",
"+ c #2D2C27",
"@ c #37342B",
"# c #555145",
/* pixels */
"OOOOOOOOOOOOOOOOOOOOOOOOOOOOOOOOOOOOOOOOOOOOOOOOOOOOOOOOOOOOOOOO",
"O##@@@@@@+++++++@@@@@@@@@++++++++++@@@@@@+++++++@@@@@@@@@+++++++",
"O#@@@@@+++++++@@@@@@@@@@@@+++++@@@@@@@@+++++++@@@@@@@@@@@@+++++@",
"O#@@@###########################################################",
"O#@@@oOOOOOOOOOOOOOOOOOOOOOOOOOOOOOOOOOOOOOOOOOOOOOOOOOOOOOOOOOO",
"O#@@+oOOOOOOOOOOOOOOOOOOOOOOOOOOooOOOOOOOOOOOOOOOOOOOOOOOOOOOOOO",
"O#@@+oOOOOooooOOOOOOOOOOOOOOoooooooOOOOOOOooooOOOOOOOOOOOOOOoooo",
"O#@@+ooooooooooooooooooooooooooooooooooooooooooooooooooooooooooo",
"O#@++oXXXXXXXXXXXXXXXXXXXXXXXXXXXXXXXXXXXXXXXXXXXXXXXXXXXXXXXXXX",
"O#@++o..........................................................",
"O#@++o..OOOOOoo..OOOOoooOOOO.OOOOOOOo.ooOOOOOOOOOOOOo...OOOOOoo.",
"O#@++o.Ooooooooo.Ooooooooooo.oooooooo.ooooooooooooooo..Ooooooooo",
"O#@++o.ooooooooO.ooooooooooo.Oooooooo.ooooooooooooooo..ooooooooO",
"O#@@+o.ooooooooO.ooooooooooo.OOOooooo.ooooooooooooooo..ooooooooO",
"O#@@+o.ooooooooO.OOoooooOooo.OOOOoooo.ooooooooooooooo..ooooooooO",
"O#@@+o.ooooooooO.OOOoooOOOOO....OOoo..oooOOOOOOOOOoo...ooooooooO",
"O#@@+o.OOooooOOO..OOOoOOOOO............OOOO............OOooooOOO",
"O#@@+o..........................................................",
"O#@@+oooOO...ooooOOOO..ooooOOO...OOOoooooOOOOO...OOOooooOO...ooo",
"O#@+@oooooO.ooooooooo.ooooooooO.ooooooooooooooO.ooooooooooO.oooo",
"O#@@@ooooOO.ooooooooo ooooooooo.ooooooooooooooo..ooooooooOO.oooo",
"O#@@+oooooO o..oooooo ooooooooo oooooo..ooooooo ..ooooooooO o..o",
"O#@@+ooooo. o..oooooo o.o...ooo .ooo.....ooooo. ......oooo. o..o",
"O#@@+o..... ......... ..o......  ..............  .......... ....",
"O#@++o                                                          ",
"O#@++o  ooooo..  oooo...oooo ooooooo. ..oooo ooooooo.   ooooo.. ",
"O#@++o o........ o.......... ........ ...... ........  o........",
"O#@++o ......... ........... ........ ...... ........  .........",
"O#@++o ......... ........... ........ ...... ........  .........",
"O#@@+o ......... ........... ........ ...... ........  .........",
"O#@@+o ......... ...........    ....  ......    ....   .........",
"O#@@+o .........  .........             ...            .........",
"O#@@+o                                                          ",
"O#@@@o....  .......... .........  .... .......... ........  ....",
"O#@@@o   .  ......   . ...     .  ...  ...    ... ...    .  ....",
"O#@@@o   .  ..       . ...     .  .    ...     .. .      .  ..  ",
"O#@+@o   .  ..       . ..         .    ..      .. .      .  ..  ",
"O#@+@o    . .          ..         .    ..      .  .       . .   ",
"O#@++o    .                       .     .      .  .       .     ",
"O#@@+o                                                          ",
"O#@++o                                                          ",
"O#@++o                                                          ",
"O#@++o                                                          ",
"O#@++o                                                          ",
"O#@++o                                                          ",
"O#@@+o                                                          ",
"O#@@+o                                                          ",
"O#@@+o                                                          ",
"O#@@+o                                                          ",
"O#@@@o                                                          ",
"O#@@@o                                                          ",
"O#@@@o                                                          ",
"O#@+@o                                                          ",
"O#@+@o                                                          ",
"O#@++o                                                          ",
"O#@@+o                                                          ",
"O#@++o                                                          ",
"O#@++ooooooooooooooooooooooooooooooooooooooooooooooooooooooooooo",
"O#@@@@@@@+++++++@@@@@@@@@++++++++++@@@@@@+++++++@@@@@@@@@+++++++",
"O#@@@@@+++++++@@@@@@@@@@@@+++++@@@@@@@@+++++++@@@@@@@@@@@@+++++@",
"O###############################################################",
"o+OOOOOOOOOOOOOOOOOOOOOOOOOOOOOOOOOOOOOOOOOOOOOOOOOOOOOOOOOOOOOO",
"o+OOOOOOOOOOOOOOOOOOOOOOOOOOOOOOooOOOOOOOOOOOOOOOOOOOOOOOOOOOOOO",
"o+OOOOOOOOooooOOOOOOOOOOOOOOoooooooOOOOOOOooooOOOOOOOOOOOOOOoooo"
};
