/* XPM */
static char *result[] = {
/* columns rows colors chars-per-pixel */
"64 64 8 1 ",
"  c #070707",
". c #140E0E",
"X c #1A1512",
"o c #1F1714",
"O c #2A221F",
"+ c #2D2C27",
"@ c #37342B",
"# c #555145",
/* pixels */
"OOOOOOOOOOOOOOOOOOOOOOOOOOOOOOOOOOOOOOOOOOOOOOOOOOOOOOOOOOOOOOOO",
"O##@@@@@@+++++++@@@@@@@@@++++++++++@@@@@@+++++++@@@@@@@@@+@@@##O",
"O#@@@@@+++++++@@@@@@@@@@@@+++++@@@@@@@@+++++++@@@@@@@@@@@@@@@@#O",
"O#@@@######################################################@@@#O",
"O#@@@oOOOOOOOOOOOOOOOOOOOOOOOOOOOOOOOOOOOOOOOOOOOOOOOOOOOOo@@@#O",
"O#@@+oOOOOOOOOOOOOOOOOOOOOOOOOOOooOOOOOOOOOOOOOOOOOOOOOOOOo+@@#O",
"O#@@+oOOOOooooOOOOOOOOOOOOOOoooooooOOOOOOOooooOOOOOOOOOOOOo+@@#O",
"O#@@+oooooooooooooooooooooooooooooooooooooooooooooooooooooo+@@#O",
"O#@++oXXXXXXXXXXXXXXXXXXXXXXXXXXXXXXXXXXXXXXXXXXXXXXXXXXXXo++@#O",
"O#@++o....................................................o++@#O",
"O#@++o..OOOOOoo..OOOOoooOOOO.OOOOOOOo.ooOOOOOOOOOOOOo...OOo++@#O",
"O#@++o.Ooooooooo.Ooooooooooo.oooooooo.ooooooooooooooo..Oooo++@#O",
"O#@++o.ooooooooO.ooooooooooo.Oooooooo.ooooooooooooooo..oooo++@#O",
"O#@@+o.ooooooooO.ooooooooooo.OOOooooo.ooooooooooooooo..oooo+@@#O",
"O#@@+o.ooooooooO.OOoooooOooo.OOOOoooo.ooooooooooooooo..oooo+@@#O",
"O#@@+o.ooooooooO.OOOoooOOOOO....OOoo..oooOOOOOOOOOoo...oooo+@@#O",
"O#@@+o.OOooooOOO..OOOoOOOOO............OOOO............OOoo+@@#O",
"O#@@+o....................................................o+@@#O",
"O#@@+oooOO...ooooOOOO..ooooOOO...OOOoooooOOOOO...OOOooooOOo+@@#O",
"O#@+@oooooO.ooooooooo.ooooooooO.ooooooooooooooO.ooooooooooo@+@#O",
"O#@@@ooooOO.ooooooooo ooooooooo.ooooooooooooooo..ooooooooOo@@@#O",
"O#@@+oooooO o..oooooo ooooooooo oooooo..ooooooo ..ooooooooo+@@#O",
"O#@@+ooooo. o..oooooo o.o...ooo .ooo.....ooooo. ......ooooo+@@#O",
"O#@@+o..... ......... ..o......  ..............  .........o+@@#O",
"O#@++o                                                    o++@#O",
"O#@++o  ooooo..  oooo...oooo ooooooo. ..oooo ooooooo.   ooo++@#O",
"O#@++o o........ o.......... ........ ...... ........  o..o++@#O",
"O#@++o ......... ........... ........ ...... ........  ...o++@#O",
"O#@++o ......... ........... ........ ...... ........  ...o++@#O",
"O#@@+o ......... ........... ........ ...... ........  ...o+@@#O",
"O#@@+o ......... ...........    ....  ......    ....   ...o+@@#O",
"O#@@+o .........  .........             ...            ...o+@@#O",
"O#@@+o                                                    o+@@#O",
"O#@@@o....  .......... .........  .... .......... ........o@@@#O",
"O#@@@o   .  ......   . ...     .  ...  ...    ... ...    .o@@@#O",
"O#@@@o   .  ..       . ...     .  .    ...     .. .      .o@@@#O",
"O#@+@o   .  ..       . ..         .    ..      .. .      .o@+@#O",
"O#@+@o    . .          ..         .    ..      .  .       o@+@#O",
"O#@++o    .                       .     .      .  .       o++@#O",
"O#@@+o                                                    o+@@#O",
"O#@++o                                                    o++@#O",
"O#@++o                                                    o++@#O",
"O#@++o                                                    o++@#O",
"O#@++o                                                    o++@#O",
"O#@++o                                                    o++@#O",
"O#@@+o                                                    o+@@#O",
"O#@@+o                                                    o+@@#O",
"O#@@+o                                                    o+@@#O",
"O#@@+o                                                    o+@@#O",
"O#@@@o                                                    o@@@#O",
"O#@@@o                                                    o@@@#O",
"O#@@@o                                                    o@@@#O",
"O#@+@o                                                    o@+@#O",
"O#@+@o                                                    o@+@#O",
"O#@++o                                                    o++@#O",
"O#@@+o                                                    o+@@#O",
"O#@++o                                                    o++@#O",
"O#@++oooooooooooooooooooooooooooooooooooooooooooooooooooooo++@#O",
"O#@@@@@@@+++++++@@@@@@@@@++++++++++@@@@@@+++++++@@@@@@@@@+@@@@#O",
"O#@@@@@+++++++@@@@@@@@@@@@+++++@@@@@@@@+++++++@@@@@@@@@@@@@@@@#O",
"O##############################################################O",
"o+OOOOOOOOOOOOOOOOOOOOOOOOOOOOOOOOOOOOOOOOOOOOOOOOOOOOOOOOOOOO+o",
"o+OOOOOOOOOOOOOOOOOOOOOOOOOOOOOOooOOOOOOOOOOOOOOOOOOOOOOOOOOOO+o",
"o+OOOOOOOOooooOOOOOOOOOOOOOOoooooooOOOOOOOooooOOOOOOOOOOOOOOoooo"
};
