/* XPM */
static char *result[] = {
/* columns rows colors chars-per-pixel */
"64 64 19 1 ",
"  c #070707",
". c #110D0C",
"X c #16100E",
"o c #18110F",
"O c #18120F",
"+ c #1F1714",
"@ c #1F1814",
"# c #201815",
"$ c #2A221F",
"% c #2D2C27",
"& c #2E2C27",
"* c #2F2D27",
"= c #2E2D28",
"- c #302F28",
"; c #312F2A",
": c #35322B",
"> c #37342B",
", c #545044",
"< c #555145",
/* pixels */
"$<>%>+                                                   o+%;>,$",
"$<:==+                                                   .+=:><$",
"$<>-*#                                                   .+=:><$",
"$<>>&+O                                                  X@>>><$",
"$<>>>+                                                   .+>>><$",
"$<>>%+                                                    +%>><$",
"$<>>%+                                                    +%>><$",
"$<>>%+                                                    +%>><$",
"$<>%%+                                                    +%%><$",
"$<>%%+                                                    +%%><$",
"$<>%%+                                                    +%%><$",
"$<>%%+                                                    +%%><$",
"$<>%%+                                                    +%%><$",
"$<>>%+                                                    +%>><$",
"$<>>%+                                                    +%>><$",
"$<>>%+                                                    +%>><$",
"$<>>%+                                                    +%>><$",
"$<>>%+                                                    +%>><$",
"$<>>%+                                                    +%>><$",
"$<>%>+                                                    +>%><$",
"$<>>>+                                                    +>>><$",
"$<>>%+                                                    +%>><$",
"$<>>%+                                                    +%>><$",
"$<>>%+                                                    +%>><$",
"$<>%%+                                                    +%%><$",
"$<>%%+                                                    +%%><$",
"$<>%%+                                                    +%%><$",
"$<>%%+                                                    +%%><$",
"$<>%%+                                                    +%%><$",
"$<>>%+                                                    +%>><$",
"$<>>%+                                                    +%>><$",
"$<>>%+                                                    +%>><$",
"$<>>%+                                                    +%>><$",
"$<>>>+                                                    +>>><$",
"$<>>>+                                                    +>>><$",
"$<>>>+                                                    +>>><$",
"$<>%>+                                                    +>%><$",
"$<>%>+                                                    +>%><$",
"$<>%%+                                                    +%%><$",
"$<>>%+                                                    +%>><$",
"$<>%%+                                                    +%%><$",
"$<>%%+                                                    +%%><$",
"$<>%%+                                                    +%%><$",
"$<>%%+                                                    +%%><$",
"$<>%%+                                                    +%%><$",
"$<>>%+                                                    +%>><$",
"$<>>%+                                                    +%>><$",
"$<>>%+                                                    +%>><$",
"$<>>%+                                                    +%>><$",
"$<>>>+                                                    +>>><$",
"$<>>>+                                                    +>>><$",
"$<>>>+                                                    +>>><$",
"$<>%>+                                                    +>%><$",
"$<>%>+                                                    +>%><$",
"$<>%%+                                                    +%%><$",
"$<>>%+                                                    +%>><$",
"$<>%%+                                                    +%%><$",
"$<>%%++++++++++++++++++++++++++++++++++++++++++++++++++++++%%><$",
"$<>>>>>>>%%%%%%%>>>>>>>>>%%%%%%%%%%>>>>>>%%%%%%%>>>>>>>>>%>>>><$",
"$<>>>>>%%%%%%%>>>>>>>>>>>>%%%%%>>>>>>>>%%%%%%%>>>>>>>>>>>>>>>><$",
"$<<<<<<<<<<<<<<<<<<<<<<<<<<<<<<<<<<<<<<<<<<<<<<<<<<<<<<<<<<<<<<$",
"+%$$$$$$$$$$$$$$$$$$$$$$$$$$$$$$$$$$$$$$$$$$$$$$$$$$$$$$$$$$$$%+",
"+%$$$$$$$$$$$$$$$$$$$$$$$$$$$$$$++$$$$$$$$$$$$$$$$$$$$$$$$$$$$%+",
"+%$$$$$$$$++++$$$$$$$$$$$$$$+++++++$$$$$$$++++$$$$$$$$$$$$$$++++"
};
