/* XPM */
static char *result[] = {
/* columns rows colors chars-per-pixel */
"64 64 18 1 ",
"  c #070707",
". c #0E0909",
"X c #0E0E0C",
"o c #120E0C",
"O c #140E0E",
"+ c #1A1512",
"@ c #1C1715",
"# c #1F1714",
"$ c #251F1D",
"% c #2A221F",
"& c #2F2925",
"* c #2D2C27",
"= c #362E2B",
"- c #37342B",
"; c #453C37",
": c #454135",
"> c #574E49",
", c #555145",
/* pixels */
"------------------------------- -------------------------------X",
":-----------------------------: :-----------------------------: ",
":,,,,,,,,,,,,,,,,,,,,,,,,,,,,:: :,,,,,,,,,,,,,,,,,,,,,,,,,,,,:: ",
"-%%%%%%%%%%%%%%%%%%%%%%%%%%%%--O-%%%%%%%%%%%%%%%%%%%%%%%%%%%%--O",
"-%%%%%%%##%%%%%%%%%%%%%%%%%%%%-O-%%%%%%%##%%%%%%%%%%%%%%%%%%%%-O",
"%%%%%%##%%%%%%%%%%%%%%%%##%%%%-O%%%%%%##%%%%%%%%%%%%%%%%##%%%%-O",
"#########%%%%%%%%%%%%########%%O#########%%%%%%%%%%%%########%%O",
"#####OOOOOOOOO#################O#####OOOOOOOOO#################O",
"OOOOOOOOOOOOOOOOOOOOOOOOOOOOOOOOOOOOOOOOOOOOOOOOOOOOOOOOOOOOOOOO",
"OOOOOOOOOOOOOOOOOOOOOOOOOOOOOOOOOOOOOOOOOOOOOOOOOOOOOOOOOOOOOOOO",
"O#########O#########OO########OOO#########O#########OO########OO",
"O%%#######O##########O#########OO%%#######O##########O#########O",
"O%%%%#####O%%%%%%%###O%%%%%%%##OO%%%%%%%%%O###%%%%###O%%%%%%%##O",
"O%%%%%%%%#O==%%%%%%%%O%%%%%%%%####%%%%%%%%O%%%%%%%%%%O%%%%%%%%%+",
"+%%====%%%O======%%%%+%%%%%%##>>>>##%%%%%%+%%%%==%%%%+%%=====%=+",
"+%======%%+========%%++%%%##>>;;;;>>##%%%++%%======%%++%%======O",
"++%%===%%%+%%=====+++++%##>#;;;;;;;;#>##%+++++====+++++%%%%%%==O",
"OOO+++%%++++OOOOO%%%%%##>>;;#;####;#;;>>##%%%%%OO%%%%%OOOO++++OO",
"==;;+%%==;;;;++O%%%%##>>;;;;##....##;;;;>>##%%%%%%%%;;;++++;;;;=",
"===;;%%%=====;;O===%>>;;;;##...ooo..##;;;;>>%==========+;;;=====",
"====;%%========O==%>;;;;##.o.o@@@@oo..##;;;;>%=========+========",
"=====%%========+=#>;;;##...oo@@@@@@ooo..##;;;>#========+========",
"=====%%%=======+%>##;#...@@@o@@$$$@o$@@@..#;##>%=======+==%%====",
"==%%%%%%=======+%>;;#..+@@@$o@$$$$$o$$$@@o.#;;>%=======+==%%%%%=",
"===%%%%%%%%%%==+%>;;#.o++@$$o@@$$$@o$$$@@o.#;;>%==%%%%%++=%%%%==",
"+++++++OOOOOOO++%>;;#.ooooooooooooooooo..o.#;;>%+++OOOO+++++++++",
"+;;====;;OO+;;==%>;;#oo@&&&@@@@oo&&&&$$@@..#;;>%==;;O+;;;;;%%%%+",
"+========;O;====%>;;#oo@$$$$$$$oo$$$$$$$@@.#;;>%===;;+=========+",
"+========;O;====%>;;#o@@$$$$$$$oo$$$$$$$$@o#;;>%=====+=========+",
"+=========+%====%>;;#o@$$$$$$$$oo$$$$$$$$@o#;;>%=====+=========+",
"+=========%%====%>;;#o@$$$$$$$$oo$$$$$$$$@o#;;>%=====%%========+",
"+=%%%%==%%%%%===%>;;#o@@$$$$$$$oo$@@@@$$@@o#;;>%=====%%%=======+",
"+=%%%%%%%%O%%===%####o@@@@@@$$$oo$@@@@@@@@o####%===%%%%%%%%%===+",
"++++++%%%OOOO+++%>;;#oo....ooooooooooo@@@.o#;;>%++%%%++OOOO+++++",
"=;;;++%%++;;;;;+%>;;#oo&&.oo&&&&o&&&oo@@ooo#;;>%+%%%=;;;;O++;;;;",
"====;;;;+======+%>;;#o@$&o&&$$$$o$$$&&&&o@o#;;>%%%%%====;+;;====",
"========+======+%>;;#o@$$o&$$$$oo$$$$$$$o@o#;;>%%========+;=====",
"========+======+%>;;#o@$$o$$$$$o$$$$$$$$o@o#;;>%%========+======",
"===%%===+======+%>;;#o@$$o$$$$@o$$$@@$$$o@o#;;>%=========+====%%",
"===%%%%++====%%+%>;;#oo$$o@@@@@o$$$@@@@oo@o#;;>%=========+%%%%%=",
"===%%%%+OOO%%%%+%>;;#oo$oo@@@@@o$$$@@@@o..o#;;>%+=======++%%%%%=",
"++++++++++++++++%>;;#oooooooooooooooooooooo#;;>%++++++++++++++++",
"++;;;;;==++;;===%>;;#o@&&&o&&&$ooo&&&&&$@oo#;;>%==;;;;;;;;+;;;=+",
"+;========+=====%>;;#o@$$&o$$$$oo&$$$$$$@@o#;;>%=========;+====+",
"+========%+=====%>;;#o@$$@@$$$$oo$$$$$$$$@o#;;>%=========%%====+",
"+========%+=====%####o@$@@@@@$$oo$$$$$$$$@o####%========%%%%%==+",
"+========%%=====%>;;#o@@@o.@@$$oo$$$$$$$$@o#;;>%==%===%%%+O%%==+",
"O========%%=====%>;;#o@@@o..@$$..$$$$$$$$@o#;;>%=%%%%%%%%+OO%==O",
"O%%====%%%%%%%==%>;;#o@@.oo.o$...@@$$$$@@@o#;;>%%%%%%%%%O++O+=OO",
"OOOO+++++%++++OO%>;;#o...oo.........ooooo@o#;;>%O++OOOOOO++OOOOO",
";;;=+++%%%=;;;;O%>;;#o@&&oo&&&$$&&&$ooo@@@o#;;>%=====;;;;++;;;==",
"=====+%%%======O%>;;#o@$&o@$$$$$$$$$$o@@@@o#;;>%========;+%=====",
"=====+%%%======O%>;;#o@$$@@$$$$$$$$$$o@@@@o#;;>%=========%%=====",
"=====+%%=======+%>;;#o@$$@@$$$$$$$$$$o@@$@o#;;>%=========%%=====",
"=====%%%=======+%>;;#o@$$@@$$$$$$$$$$@@@$@o#;;>%=========%%=====",
"===%%%%========+%>;;#o@@@@@$$$$$$$$@@@@$$@o#;;>%====%%%%%%%=====",
"==%%%%%%%%%%%%=+%;;;#o....................o#;;;%%%====%%%%%%%===",
"################################################################",
"*****----*********---------*******---------**********------*****",
"*-------*****------------*******------------*****--------*******",
",,,,,,,,,,,,,,,,,,,,,,,,,,,,,,,,,,,,,,,,,,,,,,,,,,,,,,,,,,,,,,,,",
"%%%%%%%%%%%%%%%%%%%%%%%%%%%%%%%%%%%%%%%%%%%%%%%%%%%%%%%%%%%%%%%%",
"%%##%%%%%%%%%%%%%%%%%%%%%%%%%%%%%%%%%%%%%%%%%%%%%%##%%%%%%%%%%%%",
"#####%%####%%%%%%%%%%%%%%%%%####%%%%%%%%%%%%%%#######%%%%%%%####"
};
