/* XPM */
static char *result[] = {
/* columns rows colors chars-per-pixel */
"64 64 12 1 ",
"  c #070707",
". c #140E0E",
"X c #1A1512",
"o c #1F1714",
"O c #2A221F",
"+ c #2D2C27",
"@ c #362E2B",
"# c #37342B",
"$ c #453C37",
"% c #454135",
"& c #574E49",
"* c #555145",
/* pixels */
"####################### .+###########++.########################",
"######################% .##############.%#######################",
"*********************%% .#############%.%***********************",
"OOOOOOOOOOOOOOOOOOOOO##..%%********%%%%.#OOOOOOOOOOOOOOOOOOOOOOO",
"ooOOOOOOOOOOOOOOOOOOOO#..OOOOOOOOOOOOOO.#OOOOOOOooOOOOOOOOOOOOOO",
"OOOOOOOOOOOOOOOOooOOOO#..OOOOOOOOOOOOOo.OOOOOOooOOOOOOOOOOOOOOOO",
"oOOOOOOOOOOOOooooooooOO..oOOOooOOOOoooo.oooooooooOOOOOOOOOOOOooo",
"......ooooooooooooooooo...ooooooooooooo.ooooo.........oooooooooo",
"................................................................",
"...........................OOOOOOOOO............................",
"oo.ooooooooo..oooooooo....OOOOOOOOOOO....ooooooooo.ooooooooo..oo",
"oo.oooooooooo.ooooooooo...OO@@@@@@@OOO...OOooooooo.oooooooooo.oo",
"oo.OOOOOOOooo.OOOOOOOoo..X@OOO@@@@@@@O...OOOOooooo.OOOOOOOooo.OO",
"Oo.@@OOOOOOOO.OOOOOOOOOX.X@OOOOO@@@@@$...OOOOOOOOo.@@OOOOOOOO.OO",
"OO.@@@@@@OOOOXOO@@@@@O@X.X@OOOOO@@@@@$..XOO@@@@OOO.@@@@@@OOOOXOO",
"OOX@@@@@@@@OOXXOO@@@@@@..X@OOOOO@@@@@$..XO@@@@@@OOX@@@@@@@@OOXXO",
"OOXOO@@@@@XXXXXOOOOOO@@...@OOOO@@@@@@$..XXOO@@@OOOXOO@@@@@XXXXXO",
"XXXX.....OOOOO....XXXX....@O@O@@@@@@@&X....XXXOOXXXX.....OOOOO..",
"@$$$$XX.OOOO$$$XXXX$$$$@..@O@@@@@@@@@&X.@@$$XOO@@$$$$XX.OOOO$$$X",
"@@@@@$$.@@@@@@@X$$$@@@@@..$@@@@@@@@@@&X.@@@$$OOO@@@@@$$.@@@@@@@X",
"@@@@@@@.@@@@@@@X@@@@@@@@..$@@@@@@@@@@&X.@@@@$OO@@@@@@@@.@@@@@@@X",
"@@@@@@@X@@@@@@@X@@@@@@@@..&@@@@@@@@@@&X.@@@@@OO@@@@@@@@X@@@@@@@X",
"@@@@@@@X@@@@@@@X@@OO@@@@.X&@@@@@OOO@@&X.@@@@@OOO@@@@@@@X@@@@@@@X",
"@@@@@@@X@@@@@@@X@@OOOOO@.X&@@@@OOOO@@$X.@@OOOOOO@@@@@@@X@@@@@@@X",
"OOOOO@@X@@OOOOOXX@OOOO@@.XX$$$OOOOOO$XX.@@@OOOOOOOOOO@@X@@OOOOOX",
"......XXXXX....XXXXXXXXX.XXXOOOOOOOOXXX.XXXXXXX.......XXXXX....X",
"$..X$$@@@@$$.X$$$$$OOOOX.XX$$$$$OOOO@XX.X$$@@@@$$..X$$@@@@$$.X$$",
"@$.$@@@@@@@$$X@@@@@@@@@X.X$@@@@@@@OO@$X.X@@@@@@@@$.$@@@@@@@$$X@@",
"@$.$@@@@@@@@@X@@@@@@@@@X..$@@@@@@OO@@$X.X@@@@@@@@$.$@@@@@@@@@X@@",
"@@XO@@@@@@@@@X@@@@@@@@@X..$@@@@@@O@@@&X.X@@@@@@@@@XO@@@@@@@@@X@@",
"@@OO@@@@@@@@@OO@@@@@@@@X..&@@@@@@@@@@&X.X@@@@@@@@@OO@@@@@@@@@OO@",
"OOOOO@@@@@@@@OOO@@@@@@@X..&@@@@@@@@@@&..X@OOOO@@OOOOO@@@@@@@@OOO",
"OO.OO@@@@@@OOOOOOOOO@@@X..&@@@@@@@@@@&..X@OOOOOOOO.OO@@@@@@OOOOO",
"O....XXXXXOOOXX....XXXXX..&@@@@@@@@@@&..XXXXXXOOO....XXXXXOOOXX.",
"XX$$$$$XXOOO@$$$$.XX$$$$.X&@@@@@@@@@@$..@$$$XXOOXX$$$$$XXOOO@$$$",
"X@@@@@@XOOOO@@@@$X$$@@@@.X&@@@@@@@@@@$..@@@@$$$$X@@@@@@XOOOO@@@@",
"X@@@@@@XO@@@@@@@@X$@@@@@.X&@@@O@@@@@@$..@@@@@@@@X@@@@@@XO@@@@@@@",
"X@@@@@@XO@@@@@@@@X@@@@@@.X&@@@OO@@@@@$X.@@@@@@@@X@@@@@@XO@@@@@@@",
"X@@@@@@X@@@@@@@@@X@@@@OO.X$@@@OOOOOO@$X.@@@OO@@@X@@@@@@X@@@@@@@@",
"X@@@@OOX@@@@@@@@@XOOOOO@.XX$$OOOOOOO$@X.@@@OOOOXX@@@@OOX@@@@@@@@",
"...OOOOXX@@@@@@@XXOOOOO@.XX@OOOOOOOOXXX.@@@OOOOX...OOOOXX@@@@@@@",
"XXXXXXXXXXXXXXXXXXXXXXXX.XXXOOOOOOOO@XX.XXXXXXXXXXXXXXXXXXXXXXXX",
"@XX$$@@@@@$$$$$$$$X$$$@X.XX@OOOO$$$$$@X.XX$$$$$@@XX$$@@@@@$$$$$$",
"@@X@@@@@@@@@@@@@@$X@@@@X.X@@OOOO@@@@@$X.X$@@@@@@@@X@@@@@@@@@@@@@",
"@OX@@@@@@@@@@@@@@OO@@@@X.X$@OOO@@@@@@$X.X@@@@@@@@OX@@@@@@@@@@@@@",
"@OX@@@@@@@@@@@@@OOOOO@@X.X$@@@@@@@@@@&X.X@@@@@@@@OX@@@@@@@@@@@@@",
"@OO@@@@@@@O@@@OOOX.OO@@X..&@@@@@@@@@@&X.X@@@@@@@@OO@@@@@@@O@@@OO",
"@OO@@@@@@OOOOOOOOX..O@@...&@@@@@@@@@@&X..@@@@@@@@OO@@@@@@OOOOOOO",
"OOOOOO@@OOOOOOOO.XX.X@....&@@@@@@@@@@&...OO@@@@OOOOOOO@@OOOOOOOO",
"XOXXXX...XX......XX.......&@@@@@@@@@@&......XXXXXOXXXX...XX.....",
"OO@$$$$.@@@@@$$$$XX$$$@@..&@@@@@@@@@@$..$$$@XXXOOO@$$$$.@@@@@$$$",
"O@@@@@@.@@@@@@@@$XO@@@@@..$@@@@@@@@@@$..@@@@@XOOO@@@@@@.@@@@@@@@",
"O@@@@@@.@@@@@@@@@OO@@@@@..$@@@@@@@@@@@..@@@@@XOOO@@@@@@.@@@@@@@@",
"@@@@@@@X@@@@@@@@@OO@@@@@..@@OO@@@@@@@@..@@@@@XOO@@@@@@@X@@@@@@@@",
"@@@@@@@X@@@@@@@@@OO@@@@@..@OOOOOO@@@@@..@@@@@OOO@@@@@@@X@@@@@@@@",
"@@@@@@@X@@@@OOOOOOO@@@@@..OOOOOOOOOO@@..@@@OOOO@@@@@@@@X@@@@OOOO",
"OOOOOO@XOO@@@@OOOOOOO@@@...OOOOOOOOOO...@@OOOOOOOOOOOO@XOO@@@@OO",
"oooooooooooooooooooooooooooooooooooooooooooooooooooooooooooooooo",
"+++++####+++++++++#########+++++++#########++++++++++######+++++",
"+#######+++++############+++++++############+++++########+++++++",
"****************************************************************",
"OOOOOOOOOOOOOOOOOOOOOOOOOOOOOOOOOOOOOOOOOOOOOOOOOOOOOOOOOOOOOOOO",
"OOooOOOOOOOOOOOOOOOOOOOOOOOOOOOOOOOOOOOOOOOOOOOOOOooOOOOOOOOOOOO",
"oooooOOooooOOOOOOOOOOOOOOOOOooooOOOOOOOOOOOOOOoooooooOOOOOOOoooo"
};
