/* XPM */
static char *result[] = {
/* columns rows colors chars-per-pixel */
"64 64 6 1 ",
"  c #070707",
". c #1F1714",
"X c #2A221F",
"o c #2D2C27",
"O c #37342B",
"+ c #555145",
/* pixels */
"                                                          .OOO+X",
"                                                          .OOO+X",
"                                                          .OOO+X",
"                                                          .OOO+X",
"                                                          .OOO+X",
"                                                          .oOO+X",
"                                                          .oOO+X",
"                                                          .oOO+X",
"                                                          .ooO+X",
"                                                          .ooO+X",
"                                                          .ooO+X",
"                                                          .ooO+X",
"                                                          .ooO+X",
"                                                          .oOO+X",
"                                                          .oOO+X",
"                                                          .oOO+X",
"                                                          .oOO+X",
"                                                          .oOO+X",
"                                                          .oOO+X",
"                                                          .OoO+X",
"                                                          .OOO+X",
"                                                          .oOO+X",
"                                                          .oOO+X",
"                                                          .oOO+X",
"                                                          .ooO+X",
"                                                          .ooO+X",
"                                                          .ooO+X",
"                                                          .ooO+X",
"                                                          .ooO+X",
"                                                          .oOO+X",
"                                                          .oOO+X",
"                                                          .oOO+X",
"                                                          .oOO+X",
"                                                          .OOO+X",
"                                                          .OOO+X",
"                                                          .OOO+X",
"                                                          .OoO+X",
"                                                          .OoO+X",
"                                                          .ooO+X",
"                                                          .oOO+X",
"                                                          .ooO+X",
"                                                          .ooO+X",
"                                                          .ooO+X",
"                                                          .ooO+X",
"                                                          .ooO+X",
"                                                          .oOO+X",
"                                                          .oOO+X",
"                                                          .oOO+X",
"                                                          .oOO+X",
"                                                          .OOO+X",
"                                                          .OOO+X",
"                                                          .OOO+X",
"                                                          .OoO+X",
"                                                          .OoO+X",
"                                                          .ooO+X",
"                                                          .oOO+X",
"                                                          .ooO+X",
"...........................................................ooO+X",
"oooooooOOOOoooooooooOOOOOOOOOoooooooOOOOOOOOOooooooooooOOOOOOO+X",
"oooOOOOOOOoooooOOOOOOOOOOOOoooooooOOOOOOOOOOOOoooooOOOOOOOOOOO+X",
"+++++++++++++++++++++++++++++++++++++++++++++++++++++++++++++++X",
"XXXXXXXXXXXXXXXXXXXXXXXXXXXXXXXXXXXXXXXXXXXXXXXXXXXXXXXXXXXXXXo.",
"XXXX..XXXXXXXXXXXXXXXXXXXXXXXXXXXXXXXXXXXXXXXXXXXXXX..XXXXXXXXo.",
".......XX....XXXXXXXXXXXXXXXXX....XXXXXXXXXXXXXX.......XXXXXXXo."
};
