/* XPM */
static char *result[] = {
/* columns rows colors chars-per-pixel */
"64 64 13 1 ",
"  c #070707",
". c #18120F",
"X c #1F1714",
"o c #201815",
"O c #2A221F",
"+ c #2D2C27",
"@ c #2E2C27",
"# c #2F2D27",
"$ c #2E2D28",
"% c #302F28",
"& c #35322B",
"* c #37342B",
"= c #555145",
/* pixels */
"O=*+*X                                                          ",
"O=&$$X                                                          ",
"O=*%#o                                                          ",
"O=**@X.                                                         ",
"O=***X                                                          ",
"O=**+X                                                          ",
"O=**+X                                                          ",
"O=**+X                                                          ",
"O=*++X                                                          ",
"O=*++X                                                          ",
"O=*++X                                                          ",
"O=*++X                                                          ",
"O=*++X                                                          ",
"O=**+X                                                          ",
"O=**+X                                                          ",
"O=**+X                                                          ",
"O=**+X                                                          ",
"O=**+X                                                          ",
"O=**+X                                                          ",
"O=*+*X                                                          ",
"O=***X                                                          ",
"O=**+X                                                          ",
"O=**+X                                                          ",
"O=**+X                                                          ",
"O=*++X                                                          ",
"O=*++X                                                          ",
"O=*++X                                                          ",
"O=*++X                                                          ",
"O=*++X                                                          ",
"O=**+X                                                          ",
"O=**+X                                                          ",
"O=**+X                                                          ",
"O=**+X                                                          ",
"O=***X                                                          ",
"O=***X                                                          ",
"O=***X                                                          ",
"O=*+*X                                                          ",
"O=*+*X                                                          ",
"O=*++X                                                          ",
"O=**+X                                                          ",
"O=*++X                                                          ",
"O=*++X                                                          ",
"O=*++X                                                          ",
"O=*++X                                                          ",
"O=*++X                                                          ",
"O=**+X                                                          ",
"O=**+X                                                          ",
"O=**+X                                                          ",
"O=**+X                                                          ",
"O=***X                                                          ",
"O=***X                                                          ",
"O=***X                                                          ",
"O=*+*X                                                          ",
"O=*+*X                                                          ",
"O=*++X                                                          ",
"O=**+X                                                          ",
"O=**+X                                                          ",
"O=**+X                                                          ",
"O=**+X                                                          ",
"O=***X                                                          ",
"O=***X                                                          ",
"O=***X                                                          ",
"O=*+*X                                                          ",
"O=*+*X                                                          "
};
