/* XPM */
static char *result[] = {
/* columns rows colors chars-per-pixel */
"64 64 7 1 ",
"  c #070707",
". c #1A1512",
"X c #1B1916",
"o c #2D2C27",
"O c #37342B",
"+ c #454135",
"@ c #555145",
/* pixels */
".OOOOooXX                                                       ",
".OOOOOoXX                                                       ",
".OOOOOoXX                                                       ",
".OOOOXoXX                                                       ",
".+OOOOXXX                                                       ",
".+OOOOXXX                                                       ",
".@OOOOXXX                                                       ",
".@OOOOoXX                                                       ",
".@OOOooXX                                                       ",
".@OOOooXX                                                       ",
".@+OoooXX                                                       ",
"                                                                ",
".@+OOooXX                                                       ",
".@OOOooXX                                                       ",
".@OOOooXX                                                       ",
".@OOOooXX                                                       ",
".+OOOooXX                                                       ",
".+OOOOoXX                                                       ",
".+OOOOoXX                                                       ",
".+OOOXoXX                                                       ",
".+OOOOXXX                                                       ",
".+OOOOXXX                                                       ",
".@OOOOXXX                                                       ",
".@OOOOoXX                                                       ",
".@OOOooXX                                                       ",
".@OOOooXX                                                       ",
".@+OoooXX                                                       ",
"                                                                ",
".@OOOooXX                                                       ",
".@OOOooXX                                                       ",
".@OOOooXX                                                       ",
".@OOOooXX                                                       ",
".+OOOooXX                                                       ",
".+OOOOoXX                                                       ",
".+OOOOoXX                                                       ",
".+OOOOOXX                                                       ",
".+OOOOOXX                                                       ",
".+OOOOOXX                                                       ",
".@OOOOOXX                                                       ",
".@OOOOoXX                                                       ",
".@OOOooXX                                                       ",
".@OOOooXX                                                       ",
".@+OoooXX                                                       ",
"                                                                ",
".@OOoooXX                                                       ",
".@OOoooXX                                                       ",
".@OOOooXX                                                       ",
".@OOOooXX                                                       ",
".+OOOooXX                                                       ",
".+OOOOoXX                                                       ",
".+OOOOoXX                                                       ",
".+OOOOoXX                                                       ",
".+OOOOoXX                                                       ",
".+OOOOoXX                                                       ",
".@OOOooXX                                                       ",
".@OOOooXX                                                       ",
".@OOOooXX                                                       ",
".@OOoooXX                                                       ",
".@OOoooXX                                                       ",
"                                                                ",
".@+OOooXX                                                       ",
".@OOOooXX                                                       ",
".@OOOooXX                                                       ",
".@OOOooXX                                                       "
};
