/* XPM */
static char *result[] = {
/* columns rows colors chars-per-pixel */
"64 64 11 1 ",
"  c #070707",
". c gray3",
"X c #090808",
"o c #0A0908",
"O c #0A0A09",
"+ c #1F1714",
"@ c #29211E",
"# c #2A221F",
"$ c #2D2C27",
"% c #37342B",
"& c #555145",
/* pixels */
"                                                                ",
"                                                                ",
"                                                                ",
"                                                                ",
"                                                                ",
"                                                                ",
"                                                                ",
"                                                                ",
"                                                                ",
"                                                                ",
"                                                                ",
"                                                                ",
"                                                                ",
"                                                                ",
"                                                                ",
"                                                                ",
"                                                                ",
"                                                                ",
"                                                                ",
"                                                                ",
"                                                                ",
"                                                                ",
"                                                                ",
"                                                                ",
"                                                                ",
"                                                                ",
"                                                                ",
"                                                                ",
"                                                                ",
"                                                                ",
"                                                                ",
"                                                                ",
"                                                                ",
"                                                                ",
"                                                                ",
"                                                                ",
"                                                                ",
"                                                                ",
"                                                                ",
"                                                                ",
"                                                                ",
"                                                                ",
"                                                                ",
"                                                                ",
"                                                                ",
"                                                                ",
"                                                                ",
"                                                                ",
"                                                                ",
"                                                                ",
"                                                                ",
"                                                                ",
"                                                                ",
"                                                                ",
"                                                                ",
"o                                                               ",
" .O .X                                                          ",
"++++++++++++++++++++++++++++++++++++++++++++++++++++++++++++++++",
"$$%%%%%%%$$$$$$$%%%%%%%%%$$$$$$$$$$%%%%%%$$$$$$$%%%%%%%%%$$$$$$$",
"%%%%%%%$$$$$$$%%%%%%%%%%%%$$$$$%%%%%%%%$$$$$$$%%%%%%%%%%%%$$$$$%",
"&&&&&&&&&&&&&&&&&&&&&&&&&&&&&&&&&&&&&&&&&&&&&&&&&&&&&&&&&&&&&&&&",
"################################################################",
"@###############################++##############################",
"+#########++++##############+++++++#######++++##############++++"
};
