/* XPM */
static char *result[] = {
/* columns rows colors chars-per-pixel */
"64 64 7 1 ",
"  c #070707",
". c #1A1512",
"X c #1B1916",
"o c #2D2C27",
"O c #37342B",
"+ c #454135",
"@ c #555145",
/* pixels */
"                                                       XXooOOOO.",
"                                                       XXoOOOOO.",
"                                                       XXoOOOOO.",
"                                                       XXoXOOOO.",
"                                                       XXXOOOO+.",
"                                                       XXXOOOO+.",
"                                                       XXXOOOO@.",
"                                                       XXoOOOO@.",
"                                                       XXooOOO@.",
"                                                       XXooOOO@.",
"                                                       XXoooO+@.",
"                                                                ",
"                                                       XXooOO+@.",
"                                                       XXooOOO@.",
"                                                       XXooOOO@.",
"                                                       XXooOOO@.",
"                                                       XXooOOO+.",
"                                                       XXoOOOO+.",
"                                                       XXoOOOO+.",
"                                                       XXoXOOO+.",
"                                                       XXXOOOO+.",
"                                                       XXXOOOO+.",
"                                                       XXXOOOO@.",
"                                                       XXoOOOO@.",
"                                                       XXooOOO@.",
"                                                       XXooOOO@.",
"                                                       XXoooO+@.",
"                                                                ",
"                                                       XXooOOO@.",
"                                                       XXooOOO@.",
"                                                       XXooOOO@.",
"                                                       XXooOOO@.",
"                                                       XXooOOO+.",
"                                                       XXoOOOO+.",
"                                                       XXoOOOO+.",
"                                                       XXOOOOO+.",
"                                                       XXOOOOO+.",
"                                                       XXOOOOO+.",
"                                                       XXOOOOO@.",
"                                                       XXoOOOO@.",
"                                                       XXooOOO@.",
"                                                       XXooOOO@.",
"                                                       XXoooO+@.",
"                                                                ",
"                                                       XXoooOO@.",
"                                                       XXoooOO@.",
"                                                       XXooOOO@.",
"                                                       XXooOOO@.",
"                                                       XXooOOO+.",
"                                                       XXoOOOO+.",
"                                                       XXoOOOO+.",
"                                                       XXoOOOO+.",
"                                                       XXoOOOO+.",
"                                                       XXoOOOO+.",
"                                                       XXooOOO@.",
"                                                       XXooOOO@.",
"                                                       XXooOOO@.",
"                                                       XXoooOO@.",
"                                                       XXoooOO@.",
"                                                                ",
"                                                       XXooOO+@.",
"                                                       XXooOOO@.",
"                                                       XXooOOO@.",
"                                                       XXooOOO@."
};
