/* XPM */
static char *result[] = {
/* columns rows colors chars-per-pixel */
"64 64 16 1 ",
"  c #070707",
". c #080807",
"X c gray3",
"o c #110D0C",
"O c #16100E",
"+ c #18110F",
"@ c #1F1714",
"# c #1F1814",
"$ c #2A221F",
"% c #2D2C27",
"& c #2E2D28",
"* c #312F2A",
"= c #35322B",
"- c #37342B",
"; c #545044",
": c #555145",
/* pixels */
" XX                                                      +@%*-;$",
" X.                                                      o@&=-:$",
" X                                                       o@&=-:$",
"                                                         O#---:$",
"                                                         o@---:$",
"                                                          @%--:$",
"                                                          @%--:$",
"                                                          @%--:$",
"                                                          @%%-:$",
"                                                          @%%-:$",
"                                                          @%%-:$",
"                                                          @%%-:$",
"                                                          @%%-:$",
"                                                          @%--:$",
"                                                          @%--:$",
"                                                          @%--:$",
"                                                          @%--:$",
"                                                          @%--:$",
"                                                          @%--:$",
"                                                          @-%-:$",
"                                                          @---:$",
"                                                          @%--:$",
"                                                          @%--:$",
"                                                          @%--:$",
"                                                          @%%-:$",
"                                                          @%%-:$",
"                                                          @%%-:$",
"                                                          @%%-:$",
"                                                          @%%-:$",
"                                                          @%--:$",
"                                                          @%--:$",
"                                                          @%--:$",
"                                                          @%--:$",
"                                                          @---:$",
"                                                          @---:$",
"                                                          @---:$",
"                                                          @-%-:$",
"                                                          @-%-:$",
"                                                          @%%-:$",
"                                                          @%--:$",
"                                                          @%%-:$",
"                                                          @%%-:$",
"                                                          @%%-:$",
"                                                          @%%-:$",
"                                                          @%%-:$",
"                                                          @%--:$",
"                                                          @%--:$",
"                                                          @%--:$",
"                                                          @%--:$",
"                                                          @---:$",
"                                                          @---:$",
"                                                          @---:$",
"                                                          @-%-:$",
"                                                          @-%-:$",
"                                                          @%%-:$",
"                                                          @%--:$",
"                                                          @%--:$",
"                                                          @%--:$",
"                                                          @%--:$",
"                                                          @%%-:$",
"                                                          @%%-:$",
"                                                          @%%-:$",
"                                                          @-%-:$",
"                                                          @-%-:$"
};
