/* XPM */
static char *result[] = {
/* columns rows colors chars-per-pixel */
"64 64 14 1 ",
"  c #070707",
". c #0E0E0C",
"X c #140E0E",
"o c #1A1512",
"O c #1F1714",
"+ c #2A221F",
"@ c #2D2C27",
"# c #362E2B",
"$ c #37342B",
"% c #453C37",
"& c #454135",
"* c #555145",
"= c #738585",
"- c #7D9595",
/* pixels */
"$$$$$$$$$$$$$$$$$$$$$$$$$$$$$$$$$$$$$$$@@$$$$$$$$$$$$$$$$$$$$$$.",
"&$$$$$$$$$$$$$$$&$$$$&&&*****$$$$$$$$$$$$$$$$$&$$$$$$$$$$$$$$$& ",
"&***************&**&&++++++++&&**************&&**************&& ",
"$+++++++++++++++$+++++++++++++++++++++++++++++$++++++++++++++$$X",
"$+++++++OO++++++++++++++++++++++++++++++++++++++++++++++++++++$X",
"++++++OO+++++++++++++++OOO++++++++++++++++++++++++++++++OO++++$X",
"OOOOOOOOO+++++++OOOOOOOOOOOOOO++++OOOOOO+++++++++++++OOOOOOOO++X",
"OOOOOXXXXXXXXXOOXOOOOXXXXOOOOOOOOOOOOOOOOOOOOOXOOOOOOOOOOOOOOOOX",
"XXXXXXXXXXXXXXXXXXXXXXXXXXXXXXXXXXXXXXXXXXXXXXXXXXXXXXXXXXXXXXXX",
"XXXXXXXXXXXXXXXXXXXXXXXXXXXXXXXXXXXXXXXXXXXXXXXXXXXXXXXXXXXXXXXX",
"XOOOOOOOOOXOOOOOXXOOOOOOOOXXOOOOOOOOXXOOOOOOOOXOOOOOXXOOOOOOOOXX",
"X++OOOOOOOXOOOOOXOOOOOOOOOXOOOXXXXOOOXOOOOOOOOOOOOOOOXOOOOOOOOOX",
"X++++OOOOOX+++++X+++++++OOXXXX+#O+XXXXOOO+++++++++OOOX+++++++OOX",
"X++++++++OX##+++X+++++OOOXX+++##O#+++XXOOO+++++++++++X+++++++++o",
"o++####+++X#####o###+OOXX+++##OOO##++++XXOO++++##++++o++#####+#o",
"o+######++o#####o##OOXX+++##OOOOOOO###+++XXO+######++oo++######X",
"oo++###+++o++###ooOOX++++#OOOOXXXXOOOO##+++XO+o###ooooo++++++##X",
"XXXooo++ooooXXXXXXXX+++##OOXXX+OO+XXOOOO#+++XXXXX+++++XXXXooooXX",
"##%%o++##%%%%ooXXXX+++#OOOO++==OO-=++OOOO#+++XX+++++%%%oooo%%%%#",
"###%%+++#####%%XXX#++#OOX+O====%O-==-++XXO#+++X########o%%%#####",
"####%++########XXOO##OOX+=O====%O-==-O==+XOO##X########o########",
"#####++########oXXOOOO+===O--==OO--=-O==++OOOXX########o########",
"#####+++#######oOXXOO++==O%--=-O%--=-O%==%+OOXO+#######o##++####",
"##++++++#######oO##OO+%=O--O--OOO%--O--O=%+OO##+#######o##+++++#",
"###++++++++++##oO+++++OOOO%%%OOOOOOO%%%OOO+O#+++##+++++oo#++++##",
"oooooooXXXXXXXooO+OO++%OOOOOOOOOOOOOOOOOOO++O+++oooXXXXooooooooo",
"o%%####%%XXo%%##O#OOO+%=-OO----OO----OO===++O+#+##%%Xo%%%%%++++o",
"o########%X%####O#OOO+==-OO--%O%OO%--OO-==%+O+#+###%%o#########o",
"o########%X%####O#+OO+=--OO-%--%O==%-OO-=-%+O+#+#####o#########o",
"o#########o+####O#+OO+---OOO===%O-=-OOO---%+O+#+#####o#########o",
"o#########++####O#+OO+O--OO-==-%O-===OO--O%+O+#+#####++########o",
"o#++++##+++++###O#+OO+=OOOO===-OO-===OOOO=%+O+#+#####+++#######o",
"o#++++++++X++###O#+OO+=--OO==--OO--==OO--==OO+#+###+++++++++###o",
"oooooo+++XXXXoooO#+O++==-OO---%OO%-==OO--==OO+++oo+++ooXXXXooooo",
"#%%%oo++oo%%%%%oX#+O++OO%%%%%%OOOO%%%%%%OOOOO+++o+++#%%%%Xoo%%%%",
"####%%%%o######oXXXX+%OOOOOOOOOOOOOOOOOOOOO+O+++++++####%o%%####",
"########o######oX##+O%-O--==--OOOO-==---O--+O++++########o%#####",
"########o######oX#+++%-O%===-O-OO-%-==-%O=-++++++########o######",
"###++###o######oX#+OO%==O=--O--O%--%-=-%-=-++OO+#########o####++",
"###++++oo####++oO#+OO%==-%-O---O%---O-%-==-+++#+#########o+++++#",
"###++++oXXX++++oO#+O+%==--%--OOOO%O--O-===-+O+#+o#######oo+++++#",
"ooooooooooooooooO#+O+%==-%-O-O-OO-O-O-O=-=%+O+#+oooooooooooooooo",
"oo%%%%%##oo%%###O#+O+%-=O---O--OO=-O---O-=%+X+++##%%%%%%%%o%%%#o",
"o%########o#####O#+O+%--O-=-O=-O%=-O---O-=%+X+++#########%o####o",
"o########+o#####O++X+%-O====O=-O%=-O----O-%OXXO+#########++####o",
"o########+o#####O++X+%-O%%%OO==O%=-OO%%OO-%OX+++########+++++##o",
"o########++#####OOXX+%-OO----OOOOOO----OO-%+X+#+##+###+++oX++##o",
"X########++#####O#+X+%-O--===--OO-=====-O-%+X+#+#++++++++oXX+##X",
"X++####+++++++##O#+X+%O-=======OO========O%+X+#+++++++++XooXo#XX",
"XXXXooooo+ooooXXO#+OO%%%%%%%%%%OO%%%%%%%%%%+O+#+XooXXXXXXooXXXXX",
"%%%#ooo+++#%%%%XO++OO##########OO##########+O+++#####%%%%oo%%%##",
"#####o+++######XO++OO+%%%%%%%%OOOO%%%%%%%%++O+++########%o+#####",
"#####o+++######XO+O++++++++++++OO+++++++++++O+++#########++#####",
"#####o++#######oXOO%########################%O++#########++#####",
"#####+++#######oXO++%%%%%%%%%%%%%%%%%%%%%%%%++O+#########++#####",
"###++++########oXo++++++++++++++++++++++++++++o+####+++++++#####",
"##++++++++++++#oXXoooo++++++++XXXXXXXXoooo++ooX+++####+++++++###",
"OOOOOOOOOOOOOOOOOOOOOOOOOOOOOOOOOOOOOOOOOOOOOOOOOOOOOOOOOOOOOOOO",
"@@@@@$$$$@@@@@@@@@$$$$$$$$$@@@@@@@$$$$$$$$$@@@@@@@@@@$$$$$$@@@@@",
"@$$$$$$$@@@@@$$$$$$$$$$$$@@@@@@@$$$$$$$$$$$$@@@@@$$$$$$$$@@@@@@@",
"****************************************************************",
"++++++++++++++++++++++++++++++++++++++++++++++++++++++++++++++++",
"++OO++++++++++++++++++++++++++++++++++++++++++++++OO++++++++++++",
"OOOOO++OOOO+++++++++++++++++OOOO++++++++++++++OOOOOOO+++++++OOOO"
};
