/* XPM */
static char * collectible_2_3_xpm[] = {
"64 64 9 1",
" 	c #272D2B",
".	c #28332F",
"+	c #2F3A34",
"@	c #1B2423",
"#	c #F8F8F8",
"$	c #243F72",
"%	c #92F4FF",
"&	c #007DC7",
"*	c #42CAFD",
" .++++++++++++ @+++++  +++++...@ .+++++        @.....  +++++...@",
" ++++   ......+@.  ..+ ......... ++++          @   ... .........",
" .....     .... ..   .   ....  . .....                   ....  .",
" .  ...   .....  ..  .  .....  . ......                 .....  .",
" ..   ....   ..  .   .  ...... . .......                ...... .",
" ...          .  .  ..  ........ .....                  ........",
" ....          @ .....   ....... +..           @         .......",
" +...          @+....+@    ...++ +..           @.    .@    ...++",
" ++++++       @@+++++@@@    ++@@ ++++++       @@.....@@@    ++@@",
"        @@@@  @@  @@@@@@@@@@@@@@        @@@@  @@  @@@@@@@@@@@@@@",
"      ...@@  ....++++..@@@@+++.@         @@  ....++++..@@@@+++.@",
"..   .... .   .........+@++  ..@          .   .........+@++  ..@",
".. ...... ..  .........+ +  ...           ..  .........+ +  ... ",
"+......   .............+   .... .         .............+   .... ",
" ++++++++ +++++.....+++    ....  ........ +++++.....+++    .... ",
"           @@@            .....            @@@            ..... ",
"+++@++++++++@  ......     ..... +++@++++++++@             ..... ",
"...@       +@  .......      ... ...@.......+@               ... ",
"...        +@ ........       .. ...  ......+@                .. ",
"..           .......    @  .  . ..      ....           .@  .  . ",
".. @.        .....      @ ..  .@.. @.    ...         ...@ ..  .@",
".  @@        .....     +@.... .@.  @@    ...       ....+@.... .@",
"+++@@++++++  ++++++++++@@ +++++@+++@@++++++  ++++++++++@@ +++++@",
"  @@@@             @@@@@@    @@@  @######          @@@@@@    @@@",
" +++      +++.          @@@ .... +#$$$$$$#+++.  +++   ..@@@ ....",
" .....      ...           @..... #$%%%%&$#  ... +.   .....@.....",
" ..............            .....#$%&%%&*$#..... .......... .....",
" ......... ...+            . ..#$%*%&$**$# ...+ .......... . ...",
"@.........  ..+@           . .#$%**%$$**$#  ..+@.......... . ...",
"@..          .+@          @  #$%**%$&&$*$#   .+@......   .@   ..",
"@@+          ++@+++      @@ #$%**%$&&&&$#    ++@+++      @@  +++",
"@@@@        @@@@@@      @@@#$%**%$&*&&$#    @@@@@@      @@@@   @",
" .++++++++++++ @+++++     #$%**%$&**&$#+++++++ @+++++  +++++...@",
" ++++       ..+@.  ..+   #$%**%$&**&$#  ......+@     + .........",
" ..          .. ..   .  #$%**%$&**&$#      ....          ....  .",
" .        .....  ..  . #$%**%$&**&$#      .....         .....  .",
" ..          ..  .   .#$&$%%$&**&$#          ..         ...... .",
" ....         .  .  ..#$*&$$&**&$#            .         ........",
" .........     @ .....#$*&$$&*&$#              @         .......",
" ....          @+....+#$&$&&$&$#               @+    +@    ...++",
" ++++++       @@+++++@#$$&&&&$#@              @@+++++@@@    ++@@",
"        @@@@  @@  @@@@#$$$$$$#@@        @@@@  @@  @@@@@@@@@@@@@@",
"      ...@@            ######+.@      ...@@  ....++++..@@@@+++.@",
"..   ....              .@++  ..@..   .... .   .........+@++  ..@",
".. ......              . +  ... .. ...... ..  .........+ +  ... ",
"+......                .   .... +......   .............+   .... ",
" ++++++++ +++++     ...    ....  ++++++++ +++++.....+++    .... ",
"           @@@            .....            @@@            ..... ",
"+++@++++++++@             .....    @++++++++@  ......     ..... ",
"...@.......+@               ...    @.......+@  .......      ... ",
"...  ......+@                ..      ......+@ ........       .. ",
"..      ....           .@  .  .         .... .......   .@  .  . ",
".. @.    ...         ...@ ..  .@   @.    ... .....   ...@ ..  .@",
".  @@    ...       ....+@.... .@   @@    ... ..... ....+@.... .@",
"+++@@++++++  ++++++++++@@ +++++@...@@++++++  ++++++++++@@ +++++@",
"  @@@@             @@@@@@    @@@  @@@@             @@@@@@    @@@",
" +++      +++.  ...     @@@ ....                +++   ..@@@     ",
" .....      ... .         @.....                +.   .....@     ",
" ..............            .....                ..........      ",
" ......... ...+            . ...              + ..........      ",
"@.........  ..+@           . ...@             +@..........      ",
"@..          .+@          @   ..@             +@......   .@     ",
"@@+          ++@         @@  +++@@+          ++@+++      @@  +++",
"@@@@        @@@@@@      @@@@   @@@@@        @@@@@@      @@@@   @"};
